# xmcd
#
# Track frame offsets:
#	150
#	12242
#	26317
#	36580
#	48820
#	60242
#	74792
#	87395
#	102907
#	117335
#	132170
#	145075
#	157332
#	171125
#	184937
#	198405
#	209927
#	224317
#	238055
#	247590
#
# Disc length: 3521 seconds
#
# Revision: 0
# Processed by: cddbd v1.4PL0 Copyright (c) Steve Scherf et al.
# Submitted via: dBpowerAMP V4.0
#
DISCID=280dbf14
DTITLE=Varios - Ain't Nothin' But The Blues Vol 4
DYEAR=1900
DGENRE=Blues
TTITLE0=Big Joe Williams - I Wont Be In Hard Luck No More
TTITLE1=Billie Holiday - Jim
TTITLE2=Muddy Waters - Mean Red Spider
TTITLE3=Peter Chatman - Blues At Midnight
TTITLE4=Lightning Hopkins -Let me Play With Your Poodle
TTITLE5=Big Joe Williams - Break Em Down
TTITLE6=Memphis Minnie - Moonshine
TTITLE7=Bessie Smith - Down Hearted
TTITLE8=Leadbelly - Easy Rider
TTITLE9=Ma Rainey - Booze and Blues
TTITLE10=Mississippi John Hurt - Big Leg Blues
TTITLE11=Lightning Hopkins - Can't Get That Woman Off My Mind
TTITLE12=Blind Willie Mc Tell - Georgina Rag
TTITLE13=Big Joe Williams - I Know Your Gonna Miss Me
TTITLE14=Arthur 'Big Boy' Crudup - She's Gone
TTITLE15=Muddy Waters - Gypsy Women
TTITLE16=Billie Holiday - Gloomy Sunday
TTITLE17=T. Bone Walker - T. Bone Boogie
TTITLE18=Leadbelly - I'm Sorry Mama
TTITLE19=John Lee Hooker - Helpless Blues
EXTD=
EXTT0=
EXTT1=
EXTT2=
EXTT3=
EXTT4=
EXTT5=
EXTT6=
EXTT7=
EXTT8=
EXTT9=
EXTT10=
EXTT11=
EXTT12=
EXTT13=
EXTT14=
EXTT15=
EXTT16=
EXTT17=
EXTT18=
EXTT19=
PLAYORDER=
